PathFileType	4	(x/y/z)	S05_M20_T02
DataRate	CameraRate	NumFrames	NumMarkers	Units	OrigDataRate	OrigDataStartFrame	OrigNumFrames
240	240	10	50	mm	240	274	546
Frame#	Time	Sternum			R.Acromium			L.Acromium			Top.Head			R.ASIS			L.ASIS			R.PSIS			L.PSIS			R.Great.Tro			L.Great.Tro			R.Iliac.Crest			L.Iliac.Crest			V.Sacral			R.Thigh.Upper.Post			R.Thigh.Lower.Ant			R.Thigh.Lower.Post			R.Thigh.Upper.Ant			R.Knee.Lat			R.Knee.Med			R.Shank.Upper.Post			R.Shank.Lower.Ant			R.Shank.Lower.Post			R.Shank.Upper.Ant			R.Ankle.Lat			R.Ankle.Med			R.Heel.Upper			R.Heel.Med			R.Heel.Lat			R.Toe.Lat			R.Toe.Med			R.Toe.Tip			L.Thigh.Upper.Post			L.Thigh.Lower.Ant			L.Thigh.Lower.Post			L.Thigh.Upper.Ant			L.Knee.Lat			L.Shank.Upper.Post			L.Shank.Lower.Ant			L.Shank.Lower.Post			L.Shank.Upper.Ant			L.Ankle.Lat			L.Ankle.Med			L.Heel.Upper			L.Heel.Med			L.Heel.Lat			L.Toe.Lat			L.Toe.Med			L.Toe.Tip			Cervical.Spine			Back			
		X1	Y1	Z1	X2	Y2	Z2	X3	Y3	Z3	X4	Y4	Z4	X5	Y5	Z5	X6	Y6	Z6	X7	Y7	Z7	X8	Y8	Z8	X9	Y9	Z9	X10	Y10	Z10	X11	Y11	Z11	X12	Y12	Z12	X13	Y13	Z13	X14	Y14	Z14	X15	Y15	Z15	X16	Y16	Z16	X17	Y17	Z17	X18	Y18	Z18	X19	Y19	Z19	X20	Y20	Z20	X21	Y21	Z21	X22	Y22	Z22	X23	Y23	Z23	X24	Y24	Z24	X25	Y25	Z25	X26	Y26	Z26	X27	Y27	Z27	X28	Y28	Z28	X29	Y29	Z29	X30	Y30	Z30	X31	Y31	Z31	X32	Y32	Z32	X33	Y33	Z33	X34	Y34	Z34	X35	Y35	Z35	X36	Y36	Z36	X37	Y37	Z37	X38	Y38	Z38	X39	Y39	Z39	X40	Y40	Z40	X41	Y41	Z41	X42	Y42	Z42	X43	Y43	Z43	X44	Y44	Z44	X45	Y45	Z45	X46	Y46	Z46	X47	Y47	Z47	X48	Y48	Z48	X49	Y49	Z49	X50	Y50	Z50	

274	1.1375	539.93	1262.1	325.04	457.59	1520.3	490.09	453.01	1548.4	159.31	447.4	1829.1	315.3	470.5	1012.9	448.7	482.46	1018.6	198.77	273.61	1034.1	350.39	279.28	1032.7	257.75	386.77	933.05	503.59	414.71	939.41	110.94	379.4	1097	483.87	393.34	1094.8	146.15	262.48	999.38	316.62	457.02	702.43	487.82	508.15	637.29	427.65	445.71	616.75	459.42	514.63	722.73	455.26	440.4	525.7	437.66	444.27	517.35	305.62	338.07	292.88	417.57	393.18	221.23	409.99	330.19	218.7	395.56	402.9	296.33	429.36	359.89	125.49	389.23	379.89	152.85	302.12	291.12	77.894	325.76	300.68	44.71	298.49	296.89	50.462	364.03	459.86	38.054	423.75	500	40.186	304.47	561.62	56.594	352.02	529.54	728.09	107.19	632.51	699.7	133.62	582.21	649.4	119.51	588	778.44	122.84	618.27	575.02	127.35	467.45	443.56	137.44	491.73	358.7	143.58	427.41	385.13	157.24	528.16	417.97	129.4	375.36	261.07	170.07	411.36	256.96	254.98	298.9	252.61	225.09	295.97	229.68	260.13	285.59	225.61	198.92	430.02	114.75	152.29	460.53	127.48	267.5	517.94	97.658	215.11	406.46	1573.5	331.41	282.06	1302.9	319.68
275	1.1417	544.56	1262.4	325.31	462.31	1520.7	490.13	457.89	1548.5	159.34	452.32	1829.3	314.94	474.86	1013.1	449.17	487.45	1019	199.26	278.28	1034.4	350.29	284.16	1033	257.67	390.65	933.38	503.71	420.07	940.03	111.18	383.74	1097.3	484.04	398.45	1095.2	146.35	267.2	999.75	316.5	459.29	702.37	488.01	510.21	636.83	428.14	447.45	616.78	459.56	517.26	722.17	455.77	441.46	525.68	437.78	445.78	517.28	305.7	338.48	293.18	417.49	393.29	221.36	410.11	330.47	219.03	395.51	403.24	296.44	429.45	359.99	125.59	389.22	380.11	152.98	302.14	291.18	78.027	325.75	300.76	44.817	298.5	296.92	50.587	364.02	459.89	37.967	423.77	499.98	40.204	304.45	561.69	56.472	352.07	535.85	729.25	107.45	638.94	701.55	134.07	589	650.91	119.9	593.97	779.99	123.17	625.63	576.68	127.88	477.6	441.51	137.77	504.06	357.21	143.84	439.11	382.01	157.67	538.97	417.4	129.71	390.12	256.67	170.29	426.52	253.23	255.13	314.02	246.1	225.51	311.77	223.01	260.47	301.35	218.84	199.31	448.48	111.91	151.99	478.98	125.07	267.19	536.97	96.863	214.55	411.28	1573.8	331.42	286.71	1303.3	319.81
276	1.1458	549.2	1262.7	325.59	467.03	1521.1	490.17	462.77	1548.6	159.37	457.24	1829.5	314.57	479.22	1013.3	449.64	492.45	1019.4	199.76	282.95	1034.8	350.18	289.04	1033.3	257.59	394.53	933.67	503.82	425.41	940.59	111.43	388.08	1097.6	484.22	403.57	1095.5	146.53	271.92	1000.1	316.36	461.56	702.31	488.19	512.29	636.37	428.63	449.2	616.81	459.7	519.9	721.61	456.28	442.54	525.65	437.89	447.29	517.2	305.76	338.91	293.48	417.39	393.42	221.48	410.22	330.76	219.35	395.45	403.59	296.54	429.53	360.09	125.7	389.21	380.35	153.1	302.16	291.24	78.154	325.72	300.85	44.919	298.51	296.96	50.711	364	459.91	37.881	423.78	499.95	40.216	304.44	561.75	56.351	352.12	542.05	730.3	107.71	645.27	703.25	134.51	595.66	652.3	120.31	599.86	781.4	123.5	632.84	578.21	128.42	487.72	439.36	138.11	516.37	355.67	144.1	450.83	378.81	158.1	549.72	416.76	130.02	404.98	252.23	170.51	441.8	249.48	255.28	329.31	239.53	225.94	327.77	216.29	260.82	317.28	212.02	199.71	467.04	109.15	151.64	497.55	122.74	266.82	556.07	96.2	213.93	416.11	1574	331.41	291.36	1303.6	319.91
277	1.15	553.84	1262.9	325.86	471.76	1521.4	490.2	467.65	1548.7	159.39	462.17	1829.6	314.2	483.58	1013.4	450.1	497.46	1019.7	200.25	287.62	1035.1	350.07	293.93	1033.5	257.5	398.41	933.94	503.93	430.73	941.09	111.66	392.42	1097.8	484.38	408.7	1095.8	146.72	276.63	1000.4	316.23	463.85	702.24	488.37	514.37	635.9	429.11	450.98	616.84	459.82	522.54	721.03	456.79	443.64	525.61	437.99	448.81	517.1	305.82	339.36	293.78	417.3	393.57	221.6	410.33	331.06	219.68	395.38	403.96	296.65	429.6	360.19	125.8	389.19	380.61	153.22	302.18	291.31	78.275	325.69	300.95	45.018	298.53	297	50.836	363.98	459.94	37.797	423.78	499.91	40.221	304.43	561.82	56.231	352.17	548.16	731.24	107.97	651.49	704.81	134.95	602.18	653.56	120.73	605.67	782.69	123.82	639.9	579.62	128.97	497.83	437.1	138.46	528.66	354.1	144.35	462.58	375.54	158.55	560.42	416.04	130.32	419.93	247.78	170.73	457.2	245.74	255.42	344.79	232.91	226.37	343.97	209.55	261.17	333.39	205.19	200.11	485.7	106.49	151.24	516.24	120.51	266.4	575.23	95.679	213.25	420.93	1574.2	331.4	296.01	1303.9	320
278	1.1542	558.49	1263	326.13	476.49	1521.6	490.23	472.53	1548.7	159.4	467.11	1829.7	313.82	487.94	1013.5	450.55	502.46	1020	200.74	292.3	1035.4	349.94	298.83	1033.8	257.41	402.3	934.18	504.04	436.02	941.53	111.89	396.76	1098.1	484.54	413.83	1096.1	146.9	281.35	1000.7	316.09	466.16	702.16	488.53	516.47	635.43	429.59	452.77	616.86	459.92	525.2	720.45	457.28	444.75	525.57	438.08	450.34	517	305.87	339.82	294.07	417.19	393.74	221.71	410.43	331.37	219.99	395.3	404.34	296.75	429.67	360.3	125.9	389.16	380.89	153.34	302.2	291.38	78.392	325.64	301.06	45.113	298.54	297.04	50.961	363.95	459.97	37.716	423.78	499.87	40.221	304.43	561.88	56.111	352.22	554.16	732.07	108.23	657.61	706.22	135.4	608.58	654.7	121.16	611.4	783.84	124.13	646.82	580.9	129.54	507.91	434.75	138.82	540.94	352.48	144.6	474.34	372.2	159	571.05	415.25	130.61	434.97	243.33	170.93	472.72	242.01	255.56	360.45	226.27	226.82	360.38	202.79	261.52	349.69	198.34	200.52	504.44	103.95	150.81	535.04	118.4	265.93	594.44	95.311	212.49	425.77	1574.4	331.38	300.67	1304.2	320.07
279	1.1583	563.14	1263.1	326.39	481.22	1521.9	490.24	477.41	1548.6	159.41	472.04	1829.8	313.45	492.31	1013.6	451	507.48	1020.2	201.22	296.98	1035.6	349.82	303.73	1033.9	257.31	406.19	934.38	504.14	441.3	941.91	112.11	401.11	1098.2	484.69	418.97	1096.3	147.07	286.07	1000.9	315.95	468.49	702.08	488.68	518.58	634.95	430.05	454.58	616.87	460.02	527.86	719.85	457.76	445.9	525.52	438.17	451.87	516.89	305.91	340.3	294.35	417.09	393.94	221.82	410.52	331.7	220.31	395.23	404.75	296.86	429.74	360.41	125.99	389.13	381.2	153.45	302.21	291.45	78.503	325.6	301.17	45.204	298.56	297.08	51.085	363.91	460	37.638	423.78	499.82	40.217	304.43	561.94	55.991	352.26	560.08	732.79	108.5	663.62	707.47	135.85	614.86	655.7	121.6	617.07	784.86	124.44	653.59	582.05	130.12	517.97	432.3	139.2	553.19	350.84	144.84	486.12	368.81	159.46	581.63	414.4	130.89	450.11	238.88	171.13	488.35	238.3	255.7	376.29	219.62	227.27	377	196.04	261.88	366.16	191.5	200.94	523.26	101.52	150.33	553.93	116.42	265.41	613.7	95.106	211.67	430.6	1574.5	331.35	305.33	1304.4	320.13
280	1.1625	567.81	1263.2	326.65	485.96	1522	490.25	482.3	1548.6	159.41	476.99	1829.8	313.06	496.68	1013.6	451.44	512.49	1020.4	201.69	301.67	1035.8	349.69	308.65	1034.1	257.22	410.09	934.55	504.24	446.56	942.23	112.32	405.47	1098.4	484.84	424.11	1096.4	147.23	290.8	1001.1	315.8	470.84	701.99	488.82	520.71	634.47	430.5	456.42	616.87	460.1	530.54	719.24	458.23	447.06	525.47	438.24	453.42	516.78	305.94	340.8	294.64	416.98	394.16	221.93	410.61	332.04	220.62	395.15	405.18	296.96	429.8	360.52	126.09	389.08	381.53	153.55	302.22	291.53	78.608	325.54	301.29	45.292	298.57	297.13	51.207	363.87	460.03	37.563	423.78	499.78	40.21	304.45	561.99	55.872	352.31	565.91	733.4	108.77	669.54	708.57	136.32	621.02	656.57	122.05	622.66	785.74	124.75	660.22	583.05	130.72	528.02	429.75	139.61	565.41	349.17	145.08	497.91	365.36	159.93	592.14	413.49	131.16	465.33	234.44	171.32	504.07	234.64	255.83	392.31	212.97	227.73	393.81	189.31	262.23	382.82	184.68	201.36	542.15	99.235	149.81	572.9	114.58	264.84	632.97	95.073	210.79	435.45	1574.6	331.31	310	1304.5	320.16
281	1.1667	572.48	1263.2	326.91	490.7	1522.2	490.25	487.19	1548.4	159.4	481.93	1829.8	312.68	501.05	1013.5	451.87	517.51	1020.5	202.15	306.36	1035.9	349.56	313.56	1034.1	257.12	414	934.69	504.33	451.79	942.49	112.54	409.84	1098.5	484.98	429.25	1096.5	147.39	295.52	1001.2	315.66	473.21	701.89	488.94	522.86	633.98	430.94	458.29	616.86	460.17	533.23	718.62	458.68	448.26	525.41	438.3	454.98	516.65	305.96	341.32	294.92	416.87	394.41	222.03	410.69	332.39	220.93	395.07	405.63	297.06	429.85	360.64	126.18	389.04	381.88	153.66	302.23	291.61	78.709	325.48	301.4	45.377	298.57	297.18	51.328	363.83	460.05	37.493	423.77	499.74	40.2	304.47	562.05	55.752	352.36	571.66	733.9	109.04	675.37	709.52	136.79	627.06	657.31	122.52	628.18	786.49	125.06	666.72	583.92	131.33	538.07	427.12	140.05	577.6	347.48	145.31	509.72	361.87	160.41	602.57	412.52	131.43	480.64	230.03	171.51	519.89	231.03	255.97	408.5	206.35	228.2	410.83	182.63	262.59	399.66	177.9	201.79	561.08	97.092	149.25	591.95	112.9	264.21	652.26	95.219	209.85	440.29	1574.7	331.26	314.68	1304.6	320.18
282	1.1708	577.16	1263.2	327.16	495.45	1522.3	490.24	492.09	1548.3	159.39	486.89	1829.7	312.29	505.44	1013.5	452.29	522.53	1020.5	202.61	311.05	1036.1	349.42	318.49	1034.2	257.02	417.92	934.79	504.42	457	942.68	112.75	414.21	1098.6	485.11	434.39	1096.5	147.55	300.25	1001.3	315.51	475.6	701.78	489.05	525.03	633.49	431.36	460.19	616.84	460.23	535.94	718	459.12	449.49	525.34	438.36	456.55	516.5	305.97	341.86	295.19	416.77	394.69	222.13	410.77	332.75	221.24	394.98	406.12	297.15	429.91	360.76	126.27	388.98	382.24	153.75	302.23	291.69	78.807	325.42	301.52	45.458	298.58	297.23	51.448	363.78	460.07	37.428	423.77	499.71	40.188	304.5	562.1	55.634	352.42	577.32	734.28	109.32	681.1	710.31	137.26	632.99	657.91	122.99	633.64	787.11	125.38	673.07	584.65	131.96	548.11	424.4	140.52	589.75	345.78	145.54	521.54	358.35	160.9	612.94	411.49	131.69	496.02	225.67	171.7	535.78	227.49	256.11	424.87	199.78	228.67	428.03	176.01	262.95	416.68	171.18	202.23	580.06	95.104	148.66	611.05	111.37	263.54	671.54	95.553	208.84	445.15	1574.7	331.2	319.36	1304.7	320.18
283	1.175	581.85	1263.2	327.41	500.2	1522.3	490.22	497	1548	159.36	491.85	1829.6	311.89	509.82	1013.4	452.71	527.55	1020.5	203.05	315.75	1036.1	349.28	323.43	1034.2	256.92	421.85	934.85	504.51	462.2	942.8	112.96	418.6	1098.6	485.24	439.53	1096.5	147.7	304.99	1001.4	315.37	478.02	701.66	489.14	527.23	632.98	431.76	462.12	616.82	460.27	538.66	717.36	459.54	450.75	525.26	438.41	458.14	516.35	305.98	342.42	295.46	416.66	394.99	222.23	410.84	333.12	221.54	394.9	406.63	297.23	429.96	360.89	126.36	388.93	382.61	153.84	302.23	291.78	78.902	325.36	301.63	45.537	298.58	297.28	51.565	363.74	460.09	37.371	423.77	499.7	40.174	304.53	562.14	55.516	352.47	582.9	734.55	109.6	686.74	710.94	137.75	638.8	658.38	123.47	639.04	787.58	125.7	679.29	585.23	132.59	558.14	421.6	141.02	601.87	344.07	145.77	533.37	354.81	161.39	623.24	410.42	131.94	511.49	221.35	171.87	551.75	224.02	256.24	441.4	193.27	229.15	445.42	169.47	263.31	433.87	164.54	202.67	599.06	93.282	148.02	630.19	110.03	262.83	690.8	96.08	207.79	450.01	1574.6	331.13	324.05	1304.7	320.17
